<svg xmlns="http://www.w3.org/2000/svg" xmlns:xlink="http://www.w3.org/1999/xlink" width="372" height="124" viewBox="0 0 372 124">
  <defs>
    <clipPath id="clip-alpha-white">
      <rect width="372" height="124"/>
    </clipPath>
  </defs>
  <g id="alpha-white" clip-path="url(#clip-alpha-white)">
    <g id="Group_1" data-name="Group 1">
      <g id="logo-white" transform="translate(-1.486 -0.87)">
        <g id="Group_1-2" data-name="Group 1">
          <rect id="Rectangle_1" data-name="Rectangle 1" width="5.39" height="9.86" transform="translate(53.1 9.79)" fill="#fafafb"/>
          <path id="Path_1" data-name="Path 1" d="M37.71,58.84C44,70.9,41.9,84.5,32.93,89.21S11.56,88,5.23,75.89,1,50.22,10,45.52,31.37,46.77,37.71,58.84Z" fill="#f3f4f4"/>
          <path id="Path_2" data-name="Path 2" d="M103.81,74.83c-5.72,12.37-17.81,19-27,14.7s-12-17.73-6.3-30.1,17.81-18.94,27-14.69S109.53,62.46,103.81,74.83Z" fill="#f3f4f4"/>
          <path id="Path_3" data-name="Path 3" d="M43.48,92.23c6.76,6.83,6,18.58-1.78,26.25S22.2,126.84,15.44,120s-6-18.57,1.77-26.25S36.72,85.4,43.48,92.23Z" fill="#f3f4f4"/>
          <path id="Path_4" data-name="Path 4" d="M67.41,92.23c-6.76,6.83-6,18.58,1.78,26.25s19.5,8.36,26.27,1.53,6-18.57-1.78-26.25S74.18,85.4,67.41,92.23Z" fill="#f3f4f4"/>
          <ellipse id="Ellipse_1" data-name="Ellipse 1" cx="33.39" cy="48.52" rx="33.39" ry="48.52" transform="translate(22.4 15.32)" fill="#f3f4f4"/>
          <path id="Path_5" data-name="Path 5" d="M28.06,36.89c.38.07.62,1,.64,1.3.06,1-.6,1.88-.87,2.82a53.43,53.43,0,0,0-1.39,24.61,140.65,140.65,0,0,0,4.13,18.66c4.63,14.35,16.09,22.4,31,20.58,6.93-.84,12.86-5.6,17.38-11.28,7.23-9.09,9.16-20,10.33-31.12.08-.83-.18-1.74.6-2.39,1.79,5.15,0,10.26-.24,15.39-.26,4.94-2.69,9.38-3.52,14.2Q83.26,94.82,80.41,100c-1.1.36-1.57,1.35-2.24,2.17a29.5,29.5,0,0,1-13.39,9.49c-4.91-.46-9.81,1.58-14.74,0a8.42,8.42,0,0,0-4.66-.57H44.29a36.64,36.64,0,0,1-12.74-11C21.9,86.72,19.77,71.76,21.48,55.84c.17-1.6.78-3.11,1-4.7a20.18,20.18,0,0,0-.13-2.58c0-1.66,1-2.84,1.94-4.09a7.12,7.12,0,0,0,.84-1.62c.68-1.59,1.36-3.18,2-4.79.12-.3.48-1.13.88-1.17Z" fill="#dbdada"/>
          <path id="Path_6" data-name="Path 6" d="M25.9,124.75a6.06,6.06,0,0,1,1.78-1.64,29.1,29.1,0,0,1,3.14-1.35,8.42,8.42,0,0,0,5.07-7.48c-.09-4.43-3.72-7.34-6.16-10.6a21.48,21.48,0,0,1-4.16-10.61,5.93,5.93,0,0,0-.3-1.68c-.81-2.06-3.44-1.1-5.07-1.6a7.93,7.93,0,0,1-2.5-1.15,22.579,22.579,0,0,1-4.24-2.71,33,33,0,0,1-9.14-10.8C2.11,70.52.73,62.62,1.93,57.65,3,62.64,5,70.44,8.56,74.11a7.09,7.09,0,0,0,3.24,2.07,3.64,3.64,0,0,0,3.58-.93,5.84,5.84,0,0,0,1-3.44c.73-8.3,2.16-18.08,6.4-25.24C21.94,54.14,21,63,21.62,70.63a54,54,0,0,0,8.86,26,47,47,0,0,0,4.29,5.56A25,25,0,0,0,44.35,109c.95.35,2.11.84,2.18,1.85a2.29,2.29,0,0,1-.26,1.08,21.24,21.24,0,0,1-20.38,12.86Z" fill="#b1b2b2"/>
          <path id="Path_7" data-name="Path 7" d="M30.31,40.74a1.07,1.07,0,0,1,.43.23c.92.69,1.55,1.9,2.44,2.67a18.69,18.69,0,0,0,3.76,2.45,41.6,41.6,0,0,0,9.34,3.51,41.17,41.17,0,0,0,19.18-.18c4-1,7.38-2.82,11.11-4.37a5.45,5.45,0,0,0,3-2.36c.86-1.75-.08-3.92-1.53-5.21s-3.33-2-5-3a1.39,1.39,0,0,1,1.72-.74A4.15,4.15,0,0,1,76.4,35a44.57,44.57,0,0,1,4.95,5.59c2.37,3.37-5.64,7.17-7.87,8.31a37.71,37.71,0,0,1-19.15,4.05,43.15,43.15,0,0,1-13.94-3.43,36.07,36.07,0,0,1-7.25-3.68,12.38,12.38,0,0,1-3.05-2.72C29.83,42.71,29.18,40.5,30.31,40.74Z" fill="#dbdada"/>
          <path id="Path_8" data-name="Path 8" d="M88.05,44.32a1.75,1.75,0,0,1,.48.54c1.81,3.38,2.17,7.33,2.28,11.1.11,3.93.25,7.91.19,11.84a46.67,46.67,0,0,1-.61,7c-.2,1.17-.45,2.32-.76,3.46-.63,2.27.76,2.06,2.12,1.74a25.49,25.49,0,0,0,6.66-2.56,26,26,0,0,0,3.28-2.33,21.418,21.418,0,0,1,2.62-1.76c.08,1.65-1.18,3.82-2,5.2a23,23,0,0,1-3.91,4.62,32.36,32.36,0,0,1-6.27,4.94c-1.9,1.04-5.83,2.89-7.93,1.68-1.73-1-.85-3.51-.22-4.91a48.34,48.34,0,0,0,2.61-7.54,58.57,58.57,0,0,0,2-16.41,36.325,36.325,0,0,0-.25-3.75c-.13-1.25-.31-2.48-.51-3.72-.42-2.62-1-5.19-1.66-7.77a2.45,2.45,0,0,1-.1-.85C86.22,43.61,87.34,43.77,88.05,44.32Z" fill="#b1b2b2"/>
          <path id="Path_9" data-name="Path 9" d="M64.45,111.65c1-1.63,2.79-1.9,4.25-2.71a48.46,48.46,0,0,0,12.3-10c.4,2.93-1.33,4.16-2.68,5.7a59.4,59.4,0,0,1-4.7,4.82c-1.55,1.41-1.58,2.87-.73,4.6a18.76,18.76,0,0,0,5,6.43,17.19,17.19,0,0,0,3.43,2.09q1,.42,2,.75a9.351,9.351,0,0,0,2,.51,6.87,6.87,0,0,0,1.9-.27,2.1,2.1,0,0,1,.9,0,4.24,4.24,0,0,1,.59.45c-8.28,2.28-16.32-1.3-21.44-7.77A27.231,27.231,0,0,1,64.45,111.65Z" fill="#b1b2b2"/>
          <path id="Path_10" data-name="Path 10" d="M61.53,6.61A5.74,5.74,0,1,1,55.79.87,5.74,5.74,0,0,1,61.53,6.61Z" fill="#f3f4f4"/>
          <path id="Path_11" data-name="Path 11" d="M51.13,3.25c-.08,4.71,1.79,7,5.93,7.74,2.35.44,2.35-2.56,4.32-2.63a6.05,6.05,0,0,1-2.64,3.92c-.37.27-.25.68-.25,1.09V15.3c-1.46-.05-3.94.09-5.39,0V12.39a6.071,6.071,0,0,1-.76-.53,6.55,6.55,0,0,1-1.06-1.14,6.92,6.92,0,0,1-.15-7.47Z" fill="#abb0b4"/>
          <path id="Path_12" data-name="Path 12" d="M73.6,32.7l8,8c-2.9,6-13.35,10.48-25.8,10.48S32.86,46.7,30,40.68l8-8c3.26,3.41,10,5.75,17.83,5.75S70.34,36.12,73.6,32.7Z" fill="#1768b3"/>
        </g>
        <path id="Path_13" data-name="Path 13" d="M156.28,91.93l-.11-6.8c-2.15,2.26-7.26,8.05-17.12,8.05s-18.6-6.24-18.6-16.67,8.62-15.88,21.09-16.45l14.4-.56V57.34c0-8.16-5.55-12.25-13.38-12.25a33.18,33.18,0,0,0-16.22,4.65l-3.28-7.26A41.52,41.52,0,0,1,143.24,37c15.76,0,23.59,8,23.59,23.63v31.3ZM143.47,66.87c-8.73.45-12.25,4.19-12.25,9.3s4,9.3,11.12,9.3S154,80.7,156.06,77.64V66.07Z" fill="#fff"/>
        <path id="Path_14" data-name="Path 14" d="M181.35,91.93V13.68h10.77V91.93Z" fill="#fff"/>
        <path id="Path_15" data-name="Path 15" d="M307.16,91.93V61.42C307.16,53.71,305.91,46,296,46s-14,8.5-14,19.28V91.93H271.21V13.68H282V46.57h.23A18.38,18.38,0,0,1,298.77,37c15.53,0,19.28,10,19.28,22.8V91.93Z" fill="#fff"/>
        <path id="Path_16" data-name="Path 16" d="M362.55,91.93l-.11-6.8c-2.15,2.26-7.26,8.05-17.12,8.05s-18.6-6.24-18.6-16.67,8.62-15.88,21.09-16.45l14.4-.56V57.34c0-8.16-5.55-12.25-13.38-12.25a33.18,33.18,0,0,0-16.22,4.65l-3.28-7.26A41.52,41.52,0,0,1,349.51,37c15.77,0,23.59,8,23.59,23.63v31.3ZM349.74,66.87c-8.73.45-12.25,4.19-12.25,9.3s4,9.3,11.11,9.3,11.69-4.77,13.73-7.83V66.07Z" fill="#fff"/>
        <g id="Group_2" data-name="Group 2">
          <path id="Path_17" data-name="Path 17" d="M242.35,112.25c-2.35,0-3,2.68-3,4.56v6.62H238V111.14h1.38v2.3a3.23,3.23,0,0,1,3.13-2.51,4.5,4.5,0,0,1,1.32.18l-.13,1.35A3.7,3.7,0,0,0,242.35,112.25Z" fill="#fff"/>
          <path id="Path_18" data-name="Path 18" d="M251.15,123.7a6.39,6.39,0,1,1,6.31-6.36,6.19,6.19,0,0,1-6.31,6.36Zm0-11.58c-3,0-4.82,2.3-4.82,5.17s1.86,5.16,4.82,5.16a4.83,4.83,0,0,0,4.86-5.16c-.01-2.87-1.86-5.17-4.86-5.17Z" fill="#fff"/>
          <path id="Path_19" data-name="Path 19" d="M266.61,123.7a5.06,5.06,0,0,1-4.58-2.6v2.33h-1.38V105.15H262v8.35a5.25,5.25,0,0,1,4.64-2.57c3.65,0,6,2.7,6,6.36S270.32,123.7,266.61,123.7Zm0-11.58c-3,0-4.64,2.3-4.64,5.17s1.65,5.16,4.64,5.16,4.64-2.33,4.64-5.16S269.58,112.12,266.61,112.12Z" fill="#fff"/>
          <path id="Path_20" data-name="Path 20" d="M281.11,123.7a6.39,6.39,0,1,1,6.31-6.36,6.18,6.18,0,0,1-6.31,6.36Zm0-11.58c-3,0-4.82,2.3-4.82,5.17s1.86,5.16,4.82,5.16a5.175,5.175,0,0,0,0-10.33Z" fill="#fff"/>
          <path id="Path_21" data-name="Path 21" d="M289.05,116.73V115.4h5.8v1.33Z" fill="#fff"/>
          <path id="Path_22" data-name="Path 22" d="M304.47,123.43v-1.72a5.34,5.34,0,0,1-4.16,2A3.81,3.81,0,0,1,296.2,120c0-2.12,1.59-3.58,4.91-3.71l3.36-.13v-.66a3.16,3.16,0,0,0-3.44-3.37,6.67,6.67,0,0,0-3.63,1.06l-.53-1a7.51,7.51,0,0,1,4.11-1.24c3.41,0,4.9,2,4.9,5.22v7.28Zm-3.49-6c-2.57.13-3.4,1.25-3.4,2.57s1,2.52,3,2.52a4.68,4.68,0,0,0,3.89-2.26v-3Z" fill="#fff"/>
          <path id="Path_23" data-name="Path 23" d="M314.71,110.93a5.27,5.27,0,0,1,4.61,2.51v-8.29h1.41v18.28h-1.41v-2.27a5.08,5.08,0,0,1-4.56,2.54c-3.71,0-6.09-2.78-6.09-6.41S311.05,110.93,314.71,110.93Zm.05,11.52c3,0,4.64-2.33,4.64-5.16s-1.64-5.17-4.64-5.17-4.63,2.3-4.63,5.17S311.79,122.45,314.76,122.45Z" fill="#fff"/>
          <path id="Path_24" data-name="Path 24" d="M329.21,123.43h-1.06L323,111.14h1.45l4.24,10.31,4.24-10.31h1.46Z" fill="#fff"/>
          <path id="Path_25" data-name="Path 25" d="M337.33,107.91a1.13,1.13,0,1,1,.809-.331A1.13,1.13,0,0,1,337.33,107.91Zm-.69,15.52V111.14H338v12.29Z" fill="#fff"/>
          <path id="Path_26" data-name="Path 26" d="M345.28,123.7a5,5,0,0,1-4.48-2.39l1-.79a4.21,4.21,0,0,0,3.55,1.93c1.54,0,2.89-.74,2.89-2.33S346,118,345,117.61s-3.36-1.17-3.36-3.4,1.93-3.28,3.73-3.28a4.68,4.68,0,0,1,3.87,1.72l-.84.85a3.79,3.79,0,0,0-3.08-1.41c-1.38,0-2.36.69-2.36,2s1.33,1.83,2.84,2.36,3.84,1.33,3.84,3.66S347.56,123.7,345.28,123.7Z" fill="#fff"/>
          <path id="Path_27" data-name="Path 27" d="M357.82,123.7a6.39,6.39,0,1,1,6.31-6.36,6.18,6.18,0,0,1-6.31,6.36Zm0-11.58c-3,0-4.82,2.3-4.82,5.17s1.85,5.16,4.82,5.16a4.844,4.844,0,0,0,4.85-5.16C362.67,114.46,360.82,112.12,357.82,112.12Z" fill="#fff"/>
          <path id="Path_28" data-name="Path 28" d="M371.56,112.25c-2.36,0-3,2.68-3,4.56v6.62h-1.38V111.14h1.38v2.3a3.24,3.24,0,0,1,3.13-2.51,4.5,4.5,0,0,1,1.32.18l-.13,1.35a3.68,3.68,0,0,0-1.32-.21Z" fill="#fff"/>
        </g>
        <g id="Group_3" data-name="Group 3">
          <path id="Path_29" data-name="Path 29" d="M249.5,40.32l-5.72,8.38c4.8,3.28,7.48,9.15,7.48,16.13,0,10.77-6.35,19-17.13,19a16.26,16.26,0,0,1-11.44-4.28l-3.86,5.66c3.9,5,9.69,7.92,17.35,7.92,16,0,26.19-12.25,26.19-28.24C262.37,54,257.62,44.91,249.5,40.32Z" fill="#fff"/>
          <path id="Path_30" data-name="Path 30" d="M217.27,68.46a25.425,25.425,0,0,1-.26-3.63c0-10.26,5.77-18.14,15.62-18.87l6-8.81c-.73-.06-1.47-.11-2.24-.11a22.83,22.83,0,0,0-19.16,9.53H217V38.06H206.58V84.13Z" fill="#fff"/>
          <path id="Path_31" data-name="Path 31" d="M206.58,103.21v20.68h10.83V113.03h.05V87.26Z" fill="#fff"/>
        </g>
        <path id="Path_32" data-name="Path 32" d="M169.54,118.13H120.45a.77.77,0,0,1,0-1.54h48.8l17.11-15a.77.77,0,0,1,1.23.33l4.11,11.86,60-89.12a.764.764,0,0,1,1.27.85l-60.84,90.4a.78.78,0,0,1-.73.34.79.79,0,0,1-.63-.51l-4.24-12.24-16.46,14.45a.78.78,0,0,1-.53.18Z" fill="#fff"/>
        <circle id="Ellipse_2" data-name="Ellipse 2" cx="7.06" cy="7.06" r="7.06" transform="translate(246.24 17.45)" fill="#fff"/>
      </g>
    </g>
  </g>
</svg>
