<svg width="50" height="50" viewBox="0 0 50 50" fill="none" xmlns="http://www.w3.org/2000/svg">
<g clip-path="url(#clip0_2_6)">
<path d="M25 50C38.8086 50 50 38.8086 50 25C50 11.1914 38.8086 0 25 0C11.1914 0 0 11.1914 0 25C0 38.8086 11.1914 50 25 50ZM36.0352 20.4102L23.5352 32.9102C22.6172 33.8281 21.1328 33.8281 20.2246 32.9102L13.9746 26.6602C13.0566 25.7422 13.0566 24.2578 13.9746 23.3496C14.8926 22.4414 16.377 22.4316 17.2852 23.3496L21.875 27.9395L32.7148 17.0898C33.6328 16.1719 35.1172 16.1719 36.0254 17.0898C36.9336 18.0078 36.9434 19.4922 36.0254 20.4004L36.0352 20.4102Z" fill="#7166F9"/>
</g>
<defs>
<clipPath id="clip0_2_6">
<rect width="50" height="50" fill="white"/>
</clipPath>
</defs>
</svg>
