<svg width="50" height="50" viewBox="0 0 50 50" fill="none" xmlns="http://www.w3.org/2000/svg">
<g clip-path="url(#clip0_2_2)">
<path d="M41.1816 21.5137L40.0781 22.6172L37.8711 24.8242L17.8516 44.8438C17.207 45.4883 16.4063 45.9668 15.5273 46.2207L3.00781 49.9023C2.1875 50.1465 1.29883 49.9219 0.693362 49.3066C0.0878929 48.6914 -0.146482 47.8223 0.0976585 46.9922L3.7793 34.4824C4.03321 33.6035 4.51172 32.8027 5.15625 32.1582L25.1758 12.1387L27.3828 9.93164L28.4863 8.82813L31.7969 12.1387L37.8613 18.2031L41.1719 21.5137H41.1816ZM9.375 34.5605L8.4668 35.4688C8.37891 35.5566 8.31055 35.6738 8.27149 35.8008L5.80078 44.1992L14.1992 41.7285C14.3262 41.6895 14.4434 41.6211 14.5313 41.5332L15.4395 40.625H10.9375C10.0781 40.625 9.375 39.9219 9.375 39.0625V34.5605ZM44.2676 1.88477L48.1152 5.73242C50.5566 8.17383 50.5566 12.1289 48.1152 14.5703L46.6992 15.9863L44.4922 18.1934L43.3887 19.2969L40.0781 15.9863L34.0137 9.92188L30.6934 6.61133L31.7969 5.50781L34.0039 3.30078L35.4199 1.88477C37.8613 -0.556641 41.8164 -0.556641 44.2578 1.88477H44.2676Z" fill="#848484"/>
</g>
<defs>
<clipPath id="clip0_2_2">
<rect width="50" height="50" fill="white"/>
</clipPath>
</defs>
</svg>
