<svg width="38" height="50" viewBox="0 0 38 50" fill="none" xmlns="http://www.w3.org/2000/svg">
<g clip-path="url(#clip0_2_8)">
<path d="M9.91211 6.25C11.1914 2.60742 14.668 0 18.75 0C22.832 0 26.3086 2.60742 27.5879 6.25H31.25C34.6973 6.25 37.5 9.05273 37.5 12.5V43.75C37.5 47.1973 34.6973 50 31.25 50H6.25C2.80273 50 0 47.1973 0 43.75V12.5C0 9.05273 2.80273 6.25 6.25 6.25H9.91211ZM21.875 9.375C21.875 7.64648 20.4785 6.25 18.75 6.25C17.0215 6.25 15.625 7.64648 15.625 9.375C15.625 11.1035 17.0215 12.5 18.75 12.5C20.4785 12.5 21.875 11.1035 21.875 9.375ZM15.625 35.9375C15.625 36.7969 16.3281 37.5 17.1875 37.5H29.6875C30.5469 37.5 31.25 36.7969 31.25 35.9375C31.25 35.0781 30.5469 34.375 29.6875 34.375H17.1875C16.3281 34.375 15.625 35.0781 15.625 35.9375ZM9.375 38.2812C10.6738 38.2812 11.7188 37.2363 11.7188 35.9375C11.7188 34.6387 10.6738 33.5938 9.375 33.5938C8.07617 33.5938 7.03125 34.6387 7.03125 35.9375C7.03125 37.2363 8.07617 38.2812 9.375 38.2812ZM15.625 26.5625C15.625 27.4219 16.3281 28.125 17.1875 28.125H29.6875C30.5469 28.125 31.25 27.4219 31.25 26.5625C31.25 25.7031 30.5469 25 29.6875 25H17.1875C16.3281 25 15.625 25.7031 15.625 26.5625ZM9.375 28.9062C10.6738 28.9062 11.7188 27.8613 11.7188 26.5625C11.7188 25.2637 10.6738 24.2188 9.375 24.2188C8.07617 24.2188 7.03125 25.2637 7.03125 26.5625C7.03125 27.8613 8.07617 28.9062 9.375 28.9062Z" fill="#7166F9"/>
</g>
<defs>
<clipPath id="clip0_2_8">
<rect width="37.5" height="50" fill="white"/>
</clipPath>
</defs>
</svg>
